<?xml version="1.0" standalone="no"?>
<!DOCTYPE svg PUBLIC "-//W3C//DTD SVG 20010904//EN"
 "http://www.w3.org/TR/2001/REC-SVG-20010904/DTD/svg10.dtd">
<svg version="1.0" xmlns="http://www.w3.org/2000/svg"
 width="7730.000000pt" height="7730.000000pt" viewBox="0 0 7730.000000 7730.000000"
 preserveAspectRatio="xMidYMid meet">
<metadata>
Created by potrace 1.15, written by Peter Selinger 2001-2017
</metadata>
<g transform="translate(0.000000,7730.000000) scale(0.100000,-0.100000)"
fill="#000000" stroke="none">
<path d="M56929 57113 c-13 -16 -12 -17 4 -4 16 13 21 21 13 21 -2 0 -10 -8
-17 -17z"/>
<path d="M58426 57097 c3 -10 9 -15 12 -12 3 3 0 11 -7 18 -10 9 -11 8 -5 -6z"/>
<path d="M56984 57044 c-18 -14 -18 -15 4 -4 12 6 22 13 22 15 0 8 -5 6 -26
-11z"/>
<path d="M58412 57044 c-7 -8 -8 -14 -3 -14 10 0 25 19 20 25 -2 1 -10 -3 -17
-11z"/>
<path d="M58444 57021 c7 -11 46 -35 46 -28 0 3 -12 12 -26 22 -15 9 -23 12
-20 6z"/>
<path d="M57003 57005 c0 -8 4 -12 9 -9 5 3 6 10 3 15 -9 13 -12 11 -12 -6z"/>
<path d="M58410 57005 c-7 -9 -8 -15 -2 -15 5 0 12 7 16 15 3 8 4 15 2 15 -2
0 -9 -7 -16 -15z"/>
<path d="M57103 56965 c0 -8 4 -12 9 -9 5 3 6 10 3 15 -9 13 -12 11 -12 -6z"/>
<path d="M58530 56920 c-9 -6 -10 -10 -3 -10 6 0 15 5 18 10 8 12 4 12 -15 0z"/>
<path d="M57330 56646 c0 -2 7 -7 16 -10 8 -3 12 -2 9 4 -6 10 -25 14 -25 6z"/>
<path d="M58736 56598 c3 -5 10 -6 15 -3 13 9 11 12 -6 12 -8 0 -12 -4 -9 -9z"/>
<path d="M57320 56547 c0 -2 6 -10 14 -16 11 -9 16 -9 22 1 4 7 4 10 -1 6 -4
-4 -14 -3 -22 3 -7 6 -13 9 -13 6z"/>
<path d="M58828 56433 c7 -3 16 -2 19 1 4 3 -2 6 -13 5 -11 0 -14 -3 -6 -6z"/>
<path d="M57384 56358 c-4 -7 -4 -10 1 -6 4 4 14 3 21 -3 9 -7 14 -6 20 3 4 7
4 10 -1 6 -4 -4 -14 -3 -21 3 -9 7 -14 6 -20 -3z"/>
<path d="M58754 56218 l-19 -23 23 19 c12 11 22 21 22 23 0 8 -8 2 -26 -19z"/>
<path d="M57335 56210 c-3 -5 -1 -10 4 -10 6 0 11 5 11 10 0 6 -2 10 -4 10 -3
0 -8 -4 -11 -10z"/>
<path d="M58785 56189 c-4 -6 -5 -12 -2 -15 2 -3 7 2 10 11 7 17 1 20 -8 4z"/>
<path d="M57176 56058 c3 -5 10 -6 15 -3 13 9 11 12 -6 12 -8 0 -12 -4 -9 -9z"/>
<path d="M48025 55820 c-3 -6 1 -7 9 -4 18 7 21 14 7 14 -6 0 -13 -4 -16 -10z"/>
<path d="M46582 54576 c-237 -46 -433 -150 -581 -312 -123 -135 -217 -303
-263 -472 -18 -64 -21 -106 -21 -247 -1 -152 2 -180 25 -266 116 -431 462
-728 907 -779 178 -21 383 12 536 85 357 171 576 477 616 860 52 503 -284 984
-777 1111 -124 32 -330 41 -442 20z"/>
<path d="M35995 47312 c-138 -48 -247 -154 -299 -290 l-21 -57 -3 -1641 -2
-1640 76 -130 c146 -249 317 -622 418 -913 265 -761 346 -1624 230 -2425 -8
-60 -12 -112 -7 -116 4 -4 229 -119 498 -255 598 -302 979 -496 984 -501 2 -2
-48 -107 -113 -234 l-117 -230 268 -134 c147 -73 308 -155 357 -180 48 -25 91
-46 95 -46 4 0 27 41 51 90 24 50 49 90 55 90 5 0 41 61 78 134 l68 135 37
-17 c78 -36 342 -172 342 -177 0 -3 -51 -108 -114 -233 l-114 -227 202 -103
201 -102 45 90 c24 49 49 90 55 90 6 0 41 60 79 133 38 72 71 134 73 136 2 3
140 -65 307 -150 l304 -154 -55 -109 c-30 -59 -53 -109 -51 -110 6 -5 758
-386 761 -386 1 0 27 49 57 109 l53 109 179 -89 179 -89 -110 -213 -109 -212
449 -228 449 -227 38 76 c21 42 42 75 48 73 5 -1 39 56 75 127 37 70 71 130
77 132 9 3 694 -339 712 -355 2 -2 -33 -77 -78 -166 l-83 -162 134 -3 c74 -1
352 2 618 8 266 5 565 10 664 9 270 0 516 11 508 25 -3 6 0 5 8 -1 15 -15 133
-18 125 -4 -7 10 13 9 30 -2 14 -8 244 -8 258 0 5 4 71 5 145 4 l136 -2 -3
3766 -2 3766 -33 -4 c-24 -3 -32 -8 -30 -23 1 -16 0 -17 -10 -4 -16 20 -52 26
-45 8 3 -7 1 -24 -4 -38 l-9 -25 -18 22 c-10 12 -22 19 -26 15 -5 -4 -5 -1 -1
6 4 7 12 10 17 7 5 -4 9 -1 9 5 0 6 5 8 10 5 6 -3 10 -1 10 4 0 11 -26 10 -45
0 -5 -4 -19 -5 -30 -3 -11 2 -27 1 -35 -2 -8 -4 -34 -8 -57 -9 -53 -4 -85 -14
-78 -25 3 -5 0 -12 -6 -16 -7 -4 -9 -3 -5 4 8 13 -14 28 -23 16 -3 -5 -24 -10
-45 -11 -21 -1 -46 -5 -55 -9 -9 -4 -27 -8 -40 -10 -13 -2 -31 -6 -40 -10 -9
-4 -27 -8 -41 -10 -14 -2 -59 -14 -100 -27 -41 -13 -96 -30 -122 -37 -27 -7
-48 -17 -48 -21 0 -5 -3 -8 -7 -7 -5 1 -23 -2 -41 -6 -24 -6 -32 -12 -27 -23
4 -13 3 -13 -9 -4 -14 12 -46 5 -46 -10 0 -4 -6 -6 -14 -3 -7 3 -20 -2 -29
-10 -8 -8 -17 -13 -20 -10 -10 10 -289 -124 -447 -214 -198 -113 -529 -349
-522 -373 1 -6 -2 -8 -7 -5 -20 13 -293 -255 -457 -449 -366 -433 -632 -1002
-730 -1560 -47 -266 -47 -264 -53 -1465 l-6 -1145 -23 -65 c-52 -142 -128
-253 -238 -344 -398 -328 -1014 -204 -1224 247 -69 146 -65 72 -65 1312 0 849
3 1154 13 1260 58 618 198 1127 456 1660 255 526 565 956 993 1375 399 392
789 671 1288 925 223 113 364 175 600 261 88 32 162 62 163 66 2 5 8 6 13 2 5
-3 37 4 72 15 55 18 267 77 307 86 8 2 74 15 145 30 72 14 137 29 145 32 8 3
28 7 44 8 16 2 32 8 36 15 5 7 9 8 11 2 4 -10 111 2 131 14 5 3 43 8 84 10 41
1 79 6 85 10 6 4 38 6 70 5 58 -1 75 9 42 27 -13 8 -11 10 10 10 17 0 24 -5
20 -14 -4 -10 8 -13 51 -13 31 1 54 5 51 9 -3 5 0 12 6 16 7 4 9 3 5 -4 -3 -6
-2 -13 4 -17 5 -3 10 -2 10 4 0 5 3 17 6 25 5 12 2 15 -12 10 -18 -6 -18 -6
-2 7 17 13 18 67 18 861 l0 848 383 3 c210 1 -1859 3 -4598 4 -4702 2 -4983 1
-5030 -15z m9165 -1717 c0 -7 -30 -13 -34 -7 -3 4 4 9 15 9 10 1 19 0 19 -2z
m40 1 c0 -2 -7 -7 -16 -10 -8 -3 -12 -2 -9 4 6 10 25 14 25 6z m-570 -70 c0
-8 -4 -17 -8 -20 -4 -2 -8 4 -8 15 0 10 4 19 8 19 4 0 8 -6 8 -14z m-706 -172
c5 -14 4 -15 -9 -4 -17 14 -19 20 -6 20 5 0 12 -7 15 -16z m1016 -1298 c0 -2
-8 -10 -17 -17 -16 -13 -17 -12 -4 4 13 16 21 21 21 13z m45 -6 c3 -5 2 -10
-4 -10 -5 0 -13 5 -16 10 -3 6 -2 10 4 10 5 0 13 -4 16 -10z m215 -10 c0 -5
-2 -10 -4 -10 -3 0 -8 5 -11 10 -3 6 -1 10 4 10 6 0 11 -4 11 -10z m-173 -6
c-3 -3 -12 -4 -19 -1 -8 3 -5 6 6 6 11 1 17 -2 13 -5z m-337 -39 c-7 -8 -17
-15 -23 -15 -6 0 -2 7 9 15 25 19 30 19 14 0z m-35 -36 c-4 -5 -12 -9 -18 -8
-9 0 -8 2 1 6 6 2 9 10 6 15 -4 7 -2 8 5 4 6 -4 9 -12 6 -17z m-658 -226 c0
-8 -6 -9 -19 -2 -10 5 -18 11 -18 12 0 2 8 3 18 3 10 0 19 -6 19 -13z"/>
<path d="M45288 47303 c9 -4 12 -184 12 -854 0 -467 -4 -849 -8 -849 -5 0 -12
3 -16 7 -15 15 -31 9 -31 -12 0 -18 5 -22 24 -20 13 1 33 13 43 26 14 17 18
19 14 7 -6 -21 9 -24 17 -4 4 9 21 14 49 14 24 0 172 0 331 1 l287 1 -2 843
-3 842 -365 2 c-201 1 -359 -1 -352 -4z m-13 -1702 c3 -5 1 -12 -5 -16 -5 -3
-10 1 -10 9 0 18 6 21 15 7z"/>
<path d="M45375 45601 c-3 -6 3 -15 14 -20 16 -9 18 -8 14 9 -6 21 -18 26 -28
11z"/>
<path d="M45432 45598 c-7 -7 -12 -16 -12 -20 0 -4 132 -7 293 -6 l292 3 -290
5 -290 5 288 3 c183 1 287 6 287 12 0 15 -553 13 -568 -2z"/>
<path d="M45350 45585 c0 -8 4 -15 10 -15 5 0 7 7 4 15 -4 8 -8 15 -10 15 -2
0 -4 -7 -4 -15z"/>
<path d="M24612 44763 c-7 -3 -24 -27 -37 -54 -31 -61 -68 -75 -96 -38 -59 79
-73 78 -143 -9 -93 -118 -197 -198 -361 -279 -180 -90 -351 -143 -669 -207
-579 -118 -956 -273 -1231 -506 -208 -177 -327 -394 -356 -654 -11 -97 -14
-109 -35 -118 -18 -9 -34 -6 -75 12 -141 60 -330 -35 -412 -207 -31 -66 -32
-72 -32 -198 0 -94 5 -150 19 -203 24 -96 119 -286 198 -396 60 -85 224 -260
316 -338 23 -20 42 -45 42 -56 0 -11 -23 -39 -55 -67 -72 -61 -88 -93 -83
-160 3 -39 13 -64 36 -95 88 -121 356 -261 631 -332 123 -32 329 -48 425 -34
75 12 81 30 53 156 l-23 104 -69 41 c-146 85 -335 307 -408 478 -25 59 -31 89
-35 167 -4 89 -2 98 25 150 47 89 157 150 246 136 144 -23 251 -159 388 -494
9 -22 10 -22 41 -6 101 51 107 87 35 241 -158 340 -186 570 -84 682 38 41 132
76 498 186 613 184 866 275 1144 410 455 221 627 441 642 820 4 105 1 148 -15
225 -58 281 -225 520 -439 629 -42 21 -57 24 -81 14z"/>
<path d="M45470 44111 c0 -5 -39 -8 -87 -6 l-88 2 3 -3763 2 -3763 -22 -4
c-13 -2 56 -3 152 -2 96 2 266 3 378 4 l202 1 0 3754 c0 2065 -3 3761 -6 3770
-5 14 -36 16 -244 16 -181 0 -240 -3 -243 -12 -4 -9 -8 -9 -14 -3 -11 13 -33
17 -33 6z"/>
<path d="M45103 44062 c-7 -4 -9 -13 -4 -21 6 -9 10 -7 14 8 3 12 4 21 4 21
-1 0 -7 -4 -14 -8z"/>
<path d="M26552 43088 c-70 -133 -158 -320 -164 -348 -2 -8 -6 -17 -9 -20 -4
-3 -32 -70 -64 -149 -40 -102 -53 -147 -46 -154 6 -6 11 -16 11 -21 0 -6 -4
-4 -10 4 -5 8 -11 12 -13 10 -7 -8 -104 -317 -127 -405 -11 -44 -23 -88 -26
-99 -5 -14 -3 -16 7 -11 9 5 8 1 -2 -11 -19 -22 -31 -74 -16 -74 5 0 3 -7 -4
-17 -16 -18 -38 -116 -34 -150 1 -12 -2 -20 -6 -17 -5 3 -9 -7 -10 -23 0 -15
-3 -37 -5 -48 -3 -11 -6 -39 -8 -63 -2 -24 -7 -46 -10 -49 -3 -3 0 -13 7 -21
8 -11 8 -14 0 -9 -13 8 -21 -30 -28 -127 -2 -33 -7 -78 -10 -100 -14 -92 -31
-715 -19 -659 3 12 12 24 21 27 13 5 14 4 3 -9 -7 -8 -10 -24 -7 -36 3 -12 0
-22 -8 -25 -13 -5 -15 -28 -3 -40 4 -3 4 -13 1 -22 -4 -9 -2 -13 4 -9 18 12
24 -25 8 -49 -17 -27 -20 -70 -4 -79 6 -4 8 -13 5 -21 -3 -8 0 -14 7 -14 9 0
9 -2 0 -8 -9 -6 -12 -47 -3 -47 1 0 3 -40 5 -89 2 -53 8 -93 16 -100 9 -8 10
-8 4 3 -5 9 -4 12 3 7 9 -5 9 -13 1 -28 -6 -11 -8 -31 -3 -46 4 -15 7 -30 6
-34 -1 -5 1 -8 6 -8 4 0 7 -19 8 -42 1 -63 7 -97 16 -92 5 3 5 11 1 17 -4 7 1
5 12 -3 17 -14 17 -13 12 10 -4 14 -4 19 -1 13 9 -19 31 -16 53 8 12 13 26 19
36 16 8 -4 26 -1 40 5 l24 11 -22 19 c-15 14 -17 18 -6 15 17 -6 19 16 6 68
-3 12 -8 46 -12 78 -4 31 -11 57 -16 57 -5 0 -6 7 -3 15 3 8 2 20 -2 27 -5 7
-7 22 -6 34 2 11 -2 49 -8 85 -6 35 -13 95 -16 134 -3 38 -9 77 -13 85 -4 8
-6 26 -5 39 1 13 -5 35 -12 49 -10 19 -10 28 -2 33 8 5 9 43 4 126 -9 177 -8
420 5 583 6 80 11 173 12 207 1 35 5 63 8 63 3 0 9 30 13 68 4 37 18 130 31
207 13 76 22 141 20 144 -3 2 -1 9 4 15 5 6 14 36 20 66 6 30 12 65 15 77 8
36 56 212 77 281 10 35 17 68 14 72 -3 5 -1 10 3 12 9 3 75 193 75 216 0 6 5
12 10 12 5 0 7 7 3 15 -3 8 -1 15 4 15 6 0 10 6 10 13 0 11 107 267 163 390
45 97 22 63 -51 -75z m-465 -2480 c-3 -8 -6 -5 -6 6 -1 11 2 17 5 13 3 -3 4
-12 1 -19z m0 -100 c-3 -7 -5 -2 -5 12 0 14 2 19 5 13 2 -7 2 -19 0 -25z m27
-39 c-2 -18 0 -28 6 -24 16 10 12 -1 -8 -18 -16 -15 -17 -13 -14 29 2 24 7 44
12 44 4 0 6 -14 4 -31z m-117 -161 c2 -17 0 -19 -7 -8 -5 8 -6 18 -4 22 8 12
10 10 11 -14z m185 -276 c3 -11 0 -19 -7 -19 -7 0 -10 8 -7 19 2 10 6 18 7 18
1 0 5 -8 7 -18z m-112 -16 c0 -11 -19 -15 -25 -6 -3 5 1 10 9 10 9 0 16 -2 16
-4z m-26 -60 c-3 -9 -10 -13 -15 -10 -5 3 -3 11 4 19 15 16 19 13 11 -9z m34
2 c-2 -6 -10 -13 -16 -14 -7 -1 -8 0 -2 3 5 2 8 9 4 14 -3 5 0 9 6 9 7 0 10
-5 8 -12z m-13 -48 c3 -5 2 -10 -4 -10 -5 0 -13 5 -16 10 -3 6 -2 10 4 10 5 0
13 -4 16 -10z m10 -59 c0 -16 -4 -27 -8 -24 -5 3 -6 11 -3 19 3 8 1 14 -4 14
-6 0 -10 -5 -10 -12 0 -6 -2 -9 -5 -6 -9 8 6 38 19 38 7 0 12 -13 11 -29z
m125 -1 c0 -5 -5 -12 -11 -16 -12 -7 -31 15 -23 28 6 9 34 -1 34 -12z"/>
<path d="M29099 43032 c-1 -4 -1 -11 1 -17 1 -5 -4 -4 -11 3 -15 14 -49 16
-49 3 0 -5 -11 -11 -25 -13 -13 -3 -22 -1 -19 3 7 13 4 12 -83 -16 -111 -35
-226 -92 -216 -108 14 -23 11 -33 -13 -33 -13 0 -24 4 -24 9 0 5 7 7 15 4 17
-7 30 9 15 18 -14 8 -70 -26 -63 -38 3 -6 1 -7 -5 -3 -7 4 -23 -5 -37 -20 -14
-15 -25 -23 -25 -18 0 5 -29 -20 -65 -56 -35 -35 -61 -68 -58 -73 3 -6 1 -7
-6 -3 -6 4 -14 0 -18 -11 -4 -10 -15 -24 -25 -31 -20 -15 -25 -37 -5 -26 7 4
9 3 4 -2 -5 -5 -14 -9 -19 -9 -18 0 -20 -19 -5 -39 13 -18 15 -18 38 5 13 13
27 23 32 22 4 -2 7 1 7 6 0 5 10 11 21 14 15 4 20 11 15 22 -4 10 -2 14 5 9 7
-4 10 -1 7 7 -3 8 -11 13 -17 11 -7 -1 -10 2 -6 8 3 5 1 10 -6 10 -7 0 -9 3
-6 7 10 9 49 -28 43 -42 -2 -6 22 2 54 19 32 17 56 34 54 38 -3 4 1 5 8 3 8
-3 22 2 33 11 11 8 14 12 6 8 -10 -5 -12 -3 -6 5 5 8 11 9 17 3 10 -10 48 -4
48 7 0 4 6 8 13 8 7 0 46 7 87 17 41 9 85 19 98 22 13 2 21 8 18 12 -2 4 4 8
14 8 10 0 16 -4 14 -8 -3 -4 2 -8 11 -8 9 0 13 5 10 10 -3 6 -2 10 4 10 5 0
13 -4 16 -10 10 -16 82 -12 89 5 3 8 11 15 18 14 10 0 10 -2 1 -6 -26 -10 -12
-21 26 -19 23 0 37 5 33 11 -3 6 1 4 10 -3 13 -10 17 -10 22 3 7 18 -34 21
-51 4 -8 -8 -13 -8 -18 0 -3 6 -3 11 2 10 4 -1 16 1 25 5 26 12 53 2 51 -18 0
-11 4 -15 13 -12 8 3 14 1 14 -4 0 -17 18 -11 23 8 4 19 47 38 47 21 0 -5 -9
-9 -20 -9 -11 0 -20 -4 -20 -10 0 -5 6 -10 13 -10 8 0 7 -4 -3 -11 -12 -9 -12
-10 4 -5 11 4 23 1 28 -6 6 -10 10 -10 18 2 8 13 11 13 22 1 11 -12 10 -13 -2
-6 -11 6 -12 5 -5 -3 6 -6 31 -13 58 -15 26 -2 51 -8 55 -12 4 -5 0 -4 -8 0
-13 8 -13 6 -1 -8 12 -16 37 -14 27 2 -3 4 11 7 30 8 19 0 34 -3 34 -8 0 -5
-6 -8 -12 -6 -7 1 -12 -4 -10 -11 1 -8 -2 -11 -8 -7 -6 3 -7 11 -4 17 4 6 1 9
-5 7 -7 -3 -13 -9 -13 -14 0 -15 74 -53 95 -49 10 1 15 -1 12 -6 -4 -6 5 -15
19 -22 14 -6 26 -15 26 -20 0 -5 7 -2 16 6 20 21 34 20 34 -1 0 -14 -2 -15 -9
-4 -6 9 -11 10 -15 2 -9 -13 2 -33 14 -26 4 3 11 -2 14 -11 4 -9 13 -14 22
-10 8 3 13 2 10 -2 -3 -4 4 -13 15 -20 10 -7 18 -9 17 -5 -3 15 14 43 26 43 6
0 25 12 42 28 60 54 109 92 119 92 6 0 3 5 -5 10 -12 8 -10 10 8 10 14 0 21 4
17 11 -4 6 -13 8 -21 5 -7 -3 -16 0 -20 6 -5 7 -2 8 7 4 8 -4 5 1 -6 11 -11
10 -31 29 -44 43 -13 14 -21 18 -17 10 4 -8 0 -6 -8 4 -9 11 -19 17 -22 13 -7
-6 -64 19 -64 29 0 2 14 -2 30 -11 17 -9 30 -12 30 -8 0 12 -61 44 -71 37 -5
-3 -9 0 -9 5 0 6 -6 11 -14 11 -8 0 -18 5 -22 12 -5 7 -3 8 6 3 9 -5 11 -4 6
4 -4 6 -16 9 -27 6 -12 -4 -18 -2 -17 5 2 7 -15 19 -37 26 -22 8 -56 22 -75
31 -19 9 -47 16 -62 16 -16 0 -24 5 -21 10 4 6 0 8 -9 4 -9 -3 -20 -1 -26 5
-5 5 -37 11 -69 12 -32 1 -63 5 -68 8 -14 8 -205 8 -206 0z m201 -22 c0 -5 -7
-7 -15 -4 -8 4 -12 10 -9 15 6 11 24 2 24 -11z m25 1 c-3 -5 -1 -12 5 -16 5
-3 10 -2 10 2 0 16 38 12 44 -4 5 -12 3 -13 -7 -5 -8 7 -18 7 -27 2 -16 -10
-43 7 -34 21 3 5 7 9 10 9 3 0 3 -4 -1 -9z m115 -27 c0 -2 -9 -4 -20 -4 -11 0
-20 4 -20 9 0 5 9 7 20 4 11 -3 20 -7 20 -9z m-177 -1 c-7 -2 -19 -2 -25 0 -7
3 -2 5 12 5 14 0 19 -2 13 -5z m-403 -28 c-12 -14 -7 -19 13 -16 5 1 6 -3 2
-9 -5 -8 -11 -7 -21 1 -11 9 -11 15 -3 25 6 8 14 14 16 14 3 0 0 -7 -7 -15z
m708 -13 c6 -18 -15 -14 -22 4 -4 10 -1 14 6 12 6 -2 14 -10 16 -16z m-41 -24
c-3 -7 -5 -2 -5 12 0 14 2 19 5 13 2 -7 2 -19 0 -25z m77 21 c-4 -8 1 -9 17
-4 13 4 21 4 17 0 -10 -11 -58 -15 -58 -5 0 5 6 11 13 13 18 8 19 8 11 -4z
m-29 -37 c-3 -3 -11 0 -18 7 -9 10 -8 11 6 5 10 -3 15 -9 12 -12z m152 -33
c22 -8 24 -12 13 -19 -21 -14 -30 -12 -30 4 0 8 -6 17 -12 19 -25 10 1 7 29
-4z m-34 -24 c-3 -9 -8 -14 -10 -11 -3 3 -2 9 2 15 9 16 15 13 8 -4z m54 -21
c-3 -3 -12 -4 -19 -1 -8 3 -5 6 6 6 11 1 17 -2 13 -5z m-698 -31 c2 -1 -5 -1
-16 0 -11 0 -20 7 -20 14 0 10 4 10 16 1 9 -7 18 -13 20 -15z m293 20 c-10 -4
-10 -9 3 -23 15 -16 14 -17 -11 -12 -19 3 -22 7 -12 13 7 5 9 9 5 9 -5 0 -5 5
-2 10 3 6 12 10 18 9 8 0 8 -2 -1 -6z m-537 -33 c-3 -5 -12 -10 -18 -10 -7 0
-6 4 3 10 19 12 23 12 15 0z m1059 -31 c-3 -5 -10 -7 -15 -3 -5 3 -7 10 -3 15
3 5 10 7 15 3 5 -3 7 -10 3 -15z m31 1 c3 -5 1 -10 -4 -10 -6 0 -11 5 -11 10
0 6 2 10 4 10 3 0 8 -4 11 -10z m-335 -25 c0 -8 -4 -15 -8 -15 -5 0 -9 7 -9
15 0 8 4 15 9 15 4 0 8 -7 8 -15z m-943 -1 c-3 -3 -12 -4 -19 -1 -8 3 -5 6 6
6 11 1 17 -2 13 -5z m980 -9 c0 -8 -4 -12 -9 -9 -4 3 -8 9 -8 15 0 5 4 9 8 9
5 0 9 -7 9 -15z m-53 -30 c-4 -8 -10 -12 -15 -9 -14 8 -10 24 6 24 9 0 12 -6
9 -15z m17 -18 c-10 -9 -11 -8 -5 6 3 10 9 15 12 12 3 -3 0 -11 -7 -18z m69
-28 c0 -5 -4 -9 -8 -9 -5 0 -9 7 -9 15 0 8 4 12 9 9 4 -3 8 -9 8 -15z m50 17
c0 -2 -7 -6 -15 -10 -8 -3 -15 -1 -15 4 0 6 7 10 15 10 8 0 15 -2 15 -4z
m-1230 -12 c0 -8 -19 -13 -24 -6 -3 5 1 9 9 9 8 0 15 -2 15 -3z m1291 -87
c-10 -9 -11 -8 -5 6 3 10 9 15 12 12 3 -3 0 -11 -7 -18z"/>
<path d="M29938 42685 c-16 -21 -16 -21 23 -21 45 0 49 7 16 29 -20 13 -24 13
-39 -8z"/>
<path d="M30007 42622 c-10 -21 1 -37 28 -40 25 -2 27 -1 12 8 -9 6 -15 15
-12 20 3 4 -2 10 -10 14 -8 3 -16 2 -18 -2z"/>
<path d="M29900 42595 c-10 -12 -10 -15 4 -15 9 0 16 7 16 15 0 8 -2 15 -4 15
-2 0 -9 -7 -16 -15z"/>
<path d="M28336 42561 c-4 -6 -2 -19 5 -27 7 -8 8 -14 3 -13 -23 4 -34 -3 -48
-33 -9 -17 -16 -32 -16 -34 0 -2 19 14 42 36 36 33 41 41 32 61 -7 16 -13 19
-18 10z"/>
<path d="M29770 42495 c0 -2 6 -8 13 -14 10 -8 14 -7 14 2 0 8 -6 14 -14 14
-7 0 -13 -1 -13 -2z"/>
<path d="M30080 42490 c0 -5 5 -10 10 -10 6 0 10 5 10 10 0 6 -4 10 -10 10 -5
0 -10 -4 -10 -10z"/>
<path d="M30119 42493 c-1 -5 -1 -11 0 -15 0 -5 -5 -8 -11 -8 -9 0 -8 -4 2
-10 8 -5 11 -10 6 -10 -5 0 -3 -7 4 -15 7 -8 18 -15 24 -15 6 0 4 5 -4 10 -17
11 -20 32 -5 42 6 5 5 8 -3 8 -7 0 -10 5 -7 10 3 6 4 10 1 10 -3 0 -7 -3 -7
-7z"/>
<path d="M29813 42468 c-2 -16 1 -17 13 -8 17 15 17 17 1 23 -8 3 -14 -3 -14
-15z"/>
<path d="M29860 42414 c0 -2 9 -8 20 -14 15 -8 18 -8 14 3 -4 11 -34 21 -34
11z"/>
<path d="M29940 42325 c-7 -9 -10 -18 -6 -22 3 -3 6 -1 6 6 0 7 4 10 8 7 5 -3
9 1 9 9 0 19 -2 19 -17 0z"/>
<path d="M29960 42263 c0 -7 8 -17 18 -22 14 -7 19 -6 19 4 0 8 -5 11 -10 8
-5 -3 -13 1 -18 8 -6 10 -9 10 -9 2z"/>
<path d="M30026 42127 c3 -10 9 -15 12 -12 3 3 0 11 -7 18 -10 9 -11 8 -5 -6z"/>
<path d="M30101 41664 c0 -11 3 -14 6 -6 3 7 2 16 -1 19 -3 4 -6 -2 -5 -13z"/>
<path d="M30063 41453 c4 -3 1 -13 -6 -22 -11 -14 -10 -14 5 -2 16 12 16 31 1
31 -4 0 -3 -3 0 -7z"/>
<path d="M25970 40384 c0 -8 5 -12 10 -9 6 4 8 11 5 16 -9 14 -15 11 -15 -7z"/>
<path d="M26203 39818 c-13 -6 -23 -15 -23 -20 0 -5 -4 -6 -10 -3 -5 3 -10 2
-10 -3 0 -5 17 -8 38 -8 21 1 39 6 39 12 0 6 -10 9 -21 6 -21 -4 -21 -4 -1 11
23 19 19 20 -12 5z"/>
<path d="M26241 39754 c0 -11 3 -14 6 -6 3 7 2 16 -1 19 -3 4 -6 -2 -5 -13z"/>
<path d="M26057 39754 c-11 -11 -8 -26 3 -19 6 3 10 1 10 -6 0 -7 3 -10 6 -6
3 3 2 13 -3 22 -5 8 -12 12 -16 9z"/>
<path d="M26249 39728 c-10 -32 2 -61 15 -39 4 5 2 12 -4 16 -6 4 -8 11 -5 16
4 5 4 9 1 9 -3 0 -6 -1 -7 -2z"/>
<path d="M21484 39609 c-135 -115 -392 -366 -530 -517 -727 -793 -1324 -1849
-1752 -3102 -252 -735 -449 -1530 -591 -2385 -35 -210 -88 -562 -90 -605 -1
-8 -12 -95 -25 -192 -13 -97 -27 -210 -31 -250 -3 -40 -8 -86 -10 -103 -43
-341 -90 -989 -115 -1583 -10 -216 -9 -266 2 -279 11 -14 11 -15 0 -9 -11 6
-13 -16 -10 -118 2 -69 0 -126 -4 -126 -5 0 -8 -198 -8 -440 0 -442 0 -446 32
-441 4 0 6 -17 6 -38 0 -26 -4 -38 -12 -35 -15 6 -20 -52 -6 -61 5 -3 10 -12
10 -18 0 -7 -4 -6 -11 3 -8 12 -9 11 -5 -5 9 -38 10 -90 1 -105 -6 -10 -2 -10
12 3 28 25 53 22 53 -6 0 -22 -16 -47 -31 -47 -4 0 -5 10 -1 22 3 14 2 19 -7
14 -6 -4 -8 -12 -5 -18 5 -7 1 -9 -9 -5 -10 3 -17 2 -17 -3 0 -6 7 -10 15 -10
8 0 15 -5 15 -12 0 -6 7 -4 18 5 18 16 18 13 18 -78 0 -51 -3 -92 -8 -89 -10
6 -11 -10 0 -20 4 -4 7 -25 7 -46 0 -36 -2 -38 -25 -34 -21 5 -25 2 -26 -20
-1 -14 2 -26 7 -26 5 0 9 9 9 20 0 26 16 26 30 0 8 -15 6 -24 -10 -40 -11 -11
-20 -30 -21 -42 0 -13 -2 -31 -4 -40 -2 -10 1 -18 6 -18 5 0 4 -11 -1 -26 -6
-14 -10 -33 -10 -42 0 -13 2 -13 14 4 8 10 18 15 22 11 5 -5 9 -103 10 -218 2
-166 0 -207 -10 -194 -11 15 -12 14 -12 -4 0 -11 4 -17 8 -15 14 9 22 -28 10
-47 -7 -10 -12 -24 -11 -31 0 -7 4 -4 9 7 7 17 9 14 9 -13 1 -23 -3 -31 -11
-26 -7 4 -8 3 -4 -4 4 -7 18 -12 31 -12 13 0 28 -6 32 -14 4 -8 22 -16 38 -18
19 -2 33 -11 39 -24 6 -14 33 -29 79 -45 42 -15 72 -31 74 -41 3 -9 20 -19 39
-23 21 -3 41 -16 51 -31 9 -14 22 -23 29 -20 7 3 18 -2 24 -10 7 -8 23 -14 36
-14 13 0 24 -3 24 -8 0 -7 30 -25 63 -38 9 -3 17 -13 17 -20 0 -9 11 -14 28
-14 35 0 88 -25 96 -45 3 -8 12 -15 21 -15 8 0 15 -4 15 -10 0 -5 9 -10 20
-10 11 0 23 -7 26 -15 7 -18 31 -20 36 -4 2 6 21 -5 42 -25 21 -20 47 -36 58
-36 10 0 21 -7 24 -15 4 -8 12 -15 19 -15 7 0 30 -12 51 -26 21 -15 66 -37 99
-49 33 -13 61 -30 63 -38 2 -8 19 -18 38 -21 21 -4 41 -17 51 -32 9 -14 22
-23 29 -20 7 3 18 -2 24 -10 7 -8 23 -14 36 -14 13 0 24 -3 24 -8 0 -7 30 -25
63 -38 9 -3 17 -13 17 -20 0 -9 11 -14 30 -14 28 0 63 -16 97 -45 7 -5 19 -16
27 -22 8 -7 22 -13 31 -13 9 0 18 -7 21 -15 7 -18 31 -20 36 -4 2 6 21 -5 42
-25 21 -20 47 -36 58 -36 10 0 21 -7 24 -15 4 -8 12 -15 19 -15 7 0 30 -12 51
-26 21 -15 66 -37 99 -49 33 -13 61 -30 63 -38 2 -8 19 -18 38 -21 21 -4 41
-17 51 -32 9 -14 22 -23 29 -20 7 3 18 -1 24 -9 6 -8 24 -16 38 -18 15 -3 -54
-3 -153 0 -98 2 -183 7 -189 10 -5 4 -34 5 -63 4 -29 -1 -58 1 -65 5 -13 9
-60 13 -136 13 -25 0 -41 4 -38 9 3 6 -2 16 -12 23 -16 13 -16 13 -2 -5 15
-19 13 -19 -50 -12 -94 11 -333 52 -442 76 -51 12 -104 23 -118 26 -73 14
-125 32 -122 44 2 10 0 11 -11 2 -10 -9 -30 -7 -83 9 -38 11 -75 21 -81 21 -7
1 -13 5 -13 9 0 5 -7 6 -16 2 -8 -3 -29 4 -46 17 -17 12 -28 18 -24 11 4 -6 4
-11 1 -11 -14 0 -260 83 -265 89 -3 4 -16 8 -29 8 -13 1 -27 6 -30 10 -3 4
-11 9 -16 10 -6 1 -22 4 -36 8 l-25 6 -52 -423 c-90 -724 -85 -633 -78 -1438
22 -2742 289 -6185 806 -10390 33 -267 62 -498 64 -515 3 -16 26 -190 51 -385
25 -195 71 -534 101 -753 101 -739 91 -692 156 -754 47 -45 95 -62 206 -73
125 -12 402 -12 516 0 109 11 158 39 188 107 17 38 19 58 14 136 -17 250 -27
874 -27 1627 -1 1013 2 1137 41 2470 35 1170 100 2618 185 4110 57 1000 142
2308 153 2365 7 35 25 -31 159 -570 84 -335 189 -763 233 -950 384 -1615 818
-3505 1230 -5360 144 -648 339 -1537 400 -1820 10 -49 31 -144 45 -210 110
-512 246 -1176 300 -1468 19 -103 41 -203 49 -222 22 -52 91 -120 149 -146 48
-22 64 -24 212 -23 218 2 615 58 741 106 97 35 177 127 195 222 4 22 -3 151
-17 305 -13 146 -26 295 -29 331 -52 625 -218 2336 -346 3565 -332 3207 -788
7002 -1179 9810 -53 380 -55 399 -42 391 10 -6 63 48 80 81 10 18 9 24 -5 33
-17 10 -17 10 1 8 17 -3 20 4 22 55 2 31 -1 57 -6 57 -5 0 -7 6 -4 14 3 7 -2
21 -11 30 -12 12 -13 16 -3 16 8 0 9 3 3 8 -6 4 -12 20 -13 35 -3 38 -9 47
-30 41 -9 -3 -6 2 8 10 14 8 20 15 13 16 -7 0 -10 10 -7 26 3 17 1 23 -7 19
-8 -5 -9 -1 -4 14 4 14 2 21 -7 21 -9 0 -9 3 -2 8 6 4 9 23 6 45 -3 29 -8 37
-20 32 -11 -4 -12 -2 -5 7 16 21 11 84 -7 80 -12 -3 -13 -1 -2 9 16 17 15 44
-3 59 -8 7 -12 17 -8 23 3 5 8 166 9 356 5 417 7 481 17 481 4 0 7 12 6 28 -1
31 5 81 21 196 6 44 9 88 6 99 -2 10 -2 16 2 12 5 -5 23 88 67 353 11 71 89
428 136 625 81 339 156 625 443 1667 203 741 318 1197 435 1725 33 149 63 286
66 307 l7 36 -54 11 c-29 6 -82 15 -118 21 -484 83 -1503 335 -1644 407 -50
25 -322 232 -431 328 -391 342 -728 733 -1029 1193 -185 283 -406 686 -406
742 0 36 32 64 63 56 20 -5 38 -33 89 -138 288 -592 777 -1247 1250 -1676 182
-164 500 -413 513 -401 2 2 17 40 35 84 41 104 132 277 204 390 57 87 229 320
281 380 14 17 69 80 123 142 93 107 461 479 588 593 115 104 199 177 297 258
l99 82 84 -46 c46 -25 84 -43 84 -40 0 4 -33 59 -73 124 -179 285 -560 937
-837 1427 -89 160 -190 336 -223 393 -309 524 -747 783 -1282 758 -216 -10
-476 -74 -672 -166 -97 -45 -113 -48 -136 -22 -44 48 -13 79 153 149 223 94
496 152 722 153 107 0 289 -25 389 -54 93 -27 93 -28 -56 64 -215 131 -428
309 -537 449 -28 36 -55 70 -59 74 -4 5 -56 -33 -115 -84z m-3100 -10176 c-2
-16 -1 -23 2 -16 4 9 13 5 28 -12 13 -14 32 -25 42 -25 11 0 36 -14 57 -31 20
-17 41 -28 46 -25 5 4 16 -1 24 -9 9 -8 25 -15 36 -15 12 0 21 -5 21 -11 0
-13 55 -69 68 -69 6 0 12 8 14 17 3 16 4 16 20 0 9 -9 26 -17 37 -17 12 0 21
-4 21 -10 0 -15 38 -50 66 -60 14 -6 41 -10 60 -10 19 0 34 -5 34 -10 0 -20
52 -60 86 -66 25 -5 34 -11 34 -26 0 -17 5 -20 30 -15 31 7 52 -9 26 -19 -32
-12 -15 -24 34 -24 49 0 50 -1 50 -29 0 -16 -6 -31 -12 -34 -8 -2 -9 -8 -4
-13 5 -5 11 -4 13 4 11 28 118 4 176 -40 20 -16 41 -27 46 -23 5 3 16 -2 24
-10 9 -8 25 -15 36 -15 12 0 21 -5 21 -11 0 -13 55 -69 68 -69 6 0 12 8 14 17
3 16 4 16 20 0 9 -9 26 -17 37 -17 12 0 21 -4 21 -10 0 -15 38 -50 66 -60 14
-6 41 -10 60 -10 19 0 34 -5 34 -10 0 -20 52 -60 86 -66 25 -5 34 -11 34 -26
0 -17 5 -20 30 -15 31 7 52 -9 26 -19 -32 -12 -15 -24 34 -24 49 0 50 -1 50
-29 0 -16 -6 -31 -12 -34 -8 -2 -9 -8 -4 -13 5 -5 11 -4 13 4 11 28 118 4 176
-40 20 -16 41 -27 46 -23 5 3 16 -2 24 -10 9 -8 25 -15 36 -15 12 0 21 -5 21
-11 0 -13 55 -69 68 -69 6 0 12 8 14 17 3 16 4 16 20 0 9 -9 26 -17 37 -17 12
0 21 -5 21 -11 0 -7 8 -18 18 -25 16 -12 16 -13 0 -19 -39 -15 -14 -25 62 -25
49 0 80 -4 80 -10 0 -20 52 -60 86 -66 25 -5 34 -11 34 -26 0 -17 5 -20 30
-15 31 7 52 -9 26 -19 -32 -12 -15 -24 34 -24 49 0 50 -1 50 -29 0 -16 -6 -31
-12 -34 -7 -2 -9 -8 -5 -13 4 -5 12 -2 16 5 9 13 14 13 119 -4 38 -7 42 -11
42 -35 0 -16 -6 -30 -12 -33 -7 -2 -9 -8 -5 -13 4 -5 11 -3 15 3 10 17 84 21
90 5 2 -7 14 -12 27 -12 12 0 25 -7 29 -15 3 -8 12 -15 20 -15 23 0 28 -17 10
-34 -14 -15 -13 -16 15 -16 20 0 31 6 33 17 3 16 4 16 20 0 9 -9 26 -17 37
-17 12 0 21 -5 21 -11 0 -7 8 -18 18 -25 16 -12 16 -13 0 -19 -39 -15 -14 -25
62 -25 49 0 80 -4 80 -10 0 -20 52 -60 86 -66 25 -5 34 -11 34 -26 0 -17 5
-20 30 -15 31 7 52 -9 26 -19 -32 -12 -15 -24 34 -24 49 0 50 -1 50 -29 0 -16
-6 -31 -12 -34 -7 -2 -9 -8 -5 -13 4 -5 12 -2 16 5 9 13 14 13 119 -4 38 -7
42 -11 42 -35 0 -16 -6 -30 -12 -33 -8 -2 -9 -8 -4 -13 5 -5 11 -4 13 4 6 15
89 17 98 2 3 -5 14 -10 25 -10 10 0 20 -7 24 -15 3 -8 12 -15 20 -15 23 0 28
-17 10 -34 -14 -15 -13 -16 15 -16 20 0 31 6 33 17 3 16 4 16 20 0 9 -9 26
-17 37 -17 12 0 21 -5 21 -11 0 -7 8 -18 18 -25 16 -12 16 -13 0 -19 -31 -12
-20 -25 21 -25 30 0 40 -4 44 -19 3 -13 13 -19 26 -18 21 1 26 8 14 20 -3 4
-12 2 -20 -4 -8 -7 -13 -8 -13 -1 0 13 32 25 39 15 3 -4 18 -14 33 -22 24 -12
29 -41 7 -41 -4 0 -6 7 -3 15 7 17 3 18 -20 9 -9 -3 -16 -12 -16 -19 0 -7 -8
-15 -19 -18 -14 -3 -17 0 -14 14 3 11 0 19 -6 19 -6 0 -11 -9 -11 -20 0 -21
-43 -45 -60 -35 -5 3 -11 1 -15 -5 -3 -5 -12 -10 -18 -10 -8 0 -7 3 2 9 10 7
8 9 -10 9 -13 0 -34 2 -47 5 -13 3 -33 2 -46 -3 -13 -5 -29 -4 -37 1 -11 7
-10 9 6 10 11 1 25 2 30 4 6 1 16 3 23 3 7 1 12 17 12 42 l0 40 -80 0 -80 0 0
40 0 40 -40 0 c-38 0 -40 2 -40 30 0 28 -2 30 -40 30 -22 0 -40 5 -40 10 0 6
-18 10 -40 10 -38 0 -40 2 -40 30 0 28 -2 30 -40 30 -22 0 -40 5 -40 10 0 6
-18 10 -40 10 l-40 0 0 40 0 40 -80 0 -80 0 0 40 0 40 -80 0 -80 0 0 40 0 40
-80 0 -80 0 0 40 0 40 -40 0 c-38 0 -40 2 -40 30 0 28 -2 30 -40 30 -22 0 -40
5 -40 10 0 6 -18 10 -40 10 -38 0 -40 2 -40 30 0 28 -2 30 -40 30 -22 0 -40 5
-40 10 0 6 -18 10 -40 10 l-40 0 0 40 0 40 -80 0 -80 0 0 40 0 40 -80 0 -80 0
0 40 0 40 -80 0 -80 0 0 40 0 40 -40 0 c-38 0 -40 2 -40 30 0 28 -2 30 -40 30
-22 0 -40 5 -40 10 0 6 -18 10 -40 10 -38 0 -40 2 -40 30 0 28 -2 30 -40 30
-22 0 -40 5 -40 10 0 6 -18 10 -40 10 l-40 0 0 40 0 40 -80 0 -80 0 0 40 0 40
-80 0 -80 0 0 40 0 40 -80 0 -80 0 0 40 0 40 -40 0 c-38 0 -40 2 -40 30 0 28
-2 30 -40 30 -22 0 -40 5 -40 10 0 6 -18 10 -40 10 -38 0 -40 2 -40 30 0 28
-2 30 -40 30 -22 0 -40 5 -40 10 0 6 -18 10 -40 10 l-40 0 0 40 0 40 -80 0
-80 0 0 40 0 40 -80 0 -80 0 0 40 0 40 -80 0 -80 0 0 40 0 40 -40 0 c-38 0
-40 2 -40 30 0 28 -2 30 -40 30 -35 0 -40 3 -40 22 0 17 -3 19 -12 10 -16 -16
-28 -15 -28 3 0 14 12 19 33 16 4 0 7 4 7 9 0 6 -11 8 -25 6 -32 -6 -42 10
-15 24 17 9 20 17 15 40 -4 16 -4 34 0 40 10 16 12 12 9 -17z m13 -645 c-3 -8
-6 -5 -6 6 -1 11 2 17 5 13 3 -3 4 -12 1 -19z m-6 -38 c5 0 9 -7 9 -16 0 -9
-7 -14 -17 -12 -9 2 -16 6 -15 11 1 4 3 17 3 30 1 16 2 18 6 5 2 -10 9 -18 14
-18z m-1 -64 c0 -8 -6 -16 -14 -19 -10 -4 -12 0 -9 14 6 22 23 26 23 5z m490
-762 c0 -14 -3 -14 -15 -4 -8 7 -15 14 -15 16 0 2 7 4 15 4 8 0 15 -7 15 -16z
m4104 -102 c3 -5 -1 -9 -9 -9 -8 0 -12 4 -9 9 3 4 7 8 9 8 2 0 6 -4 9 -8z m13
-44 c-3 -8 -6 -5 -6 6 -1 11 2 17 5 13 3 -3 4 -12 1 -19z m-18 -28 c0 -10 -3
-8 -9 5 -12 27 -12 43 0 25 5 -8 9 -22 9 -30z m-3546 -137 c-7 -2 -19 -2 -25
0 -7 3 -2 5 12 5 14 0 19 -2 13 -5z m327 -169 c0 -14 -3 -14 -15 -4 -8 7 -15
14 -15 16 0 2 7 4 15 4 8 0 15 -7 15 -16z m3236 -103 c-3 -5 -15 -7 -26 -4
-28 7 -25 13 6 13 14 0 23 -4 20 -9z m-148 -66 c-3 -3 -9 2 -12 12 -6 14 -5
15 5 6 7 -7 10 -15 7 -18z m46 17 c3 -5 -1 -9 -9 -9 -8 0 -12 4 -9 9 3 4 7 8
9 8 2 0 6 -4 9 -8z m-154 -23 c0 -5 -4 -9 -8 -9 -5 0 -9 7 -9 15 0 8 4 12 9 9
4 -3 8 -9 8 -15z m63 1 c3 6 5 6 3 -1 -1 -7 -13 -13 -27 -15 -13 -1 -18 0 -11
2 6 3 9 11 5 17 -4 8 -1 7 9 -1 11 -9 18 -9 21 -2z m-277 -63 c4 -4 14 -1 23
5 9 7 13 9 9 4 -4 -5 -2 -18 4 -30 6 -11 7 -18 3 -14 -4 4 -16 3 -26 -3 -13
-6 -19 -6 -19 1 0 5 7 10 15 10 8 0 15 4 15 9 0 6 -9 8 -19 6 -11 -2 -27 2
-37 9 -16 12 -15 13 4 11 12 -1 25 -4 28 -8z m131 7 c-3 -3 -12 -4 -19 -1 -8
3 -5 6 6 6 11 1 17 -2 13 -5z m-42 -14 c3 -6 -1 -7 -9 -4 -18 7 -21 14 -7 14
6 0 13 -4 16 -10z m-2302 -67 c-7 -2 -19 -2 -25 0 -7 3 -2 5 12 5 14 0 19 -2
13 -5z m1977 -38 c0 -2 -9 -2 -20 0 -11 2 -20 1 -20 -3 0 -14 -38 -11 -44 4
-4 11 0 13 19 8 16 -4 25 -2 25 5 0 9 5 9 20 1 11 -6 20 -13 20 -15z m-97 -9
c3 -6 -3 -12 -13 -12 -11 0 -18 7 -17 17 1 18 23 15 30 -5z m-413 -37 c0 -5 5
-7 10 -4 6 4 22 8 36 11 19 3 24 1 18 -8 -5 -10 -4 -11 7 0 16 15 59 16 59 1
0 -5 4 -7 10 -4 6 4 7 -1 3 -12 -6 -16 -5 -16 10 -4 9 7 15 16 13 20 -2 3 18
6 44 6 27 0 46 -3 43 -8 -3 -5 -8 -6 -11 -3 -3 3 -14 -2 -25 -11 -11 -10 -17
-12 -13 -5 5 8 0 12 -14 12 -14 0 -19 -4 -14 -12 4 -7 4 -10 -1 -6 -4 4 -14 3
-21 -3 -8 -6 -23 -7 -36 -3 -13 4 -29 9 -37 10 -8 2 -25 5 -38 9 -33 8 -28 -3
10 -20 17 -8 22 -12 10 -9 -13 3 -23 1 -23 -5 0 -6 -5 -11 -11 -11 -5 0 -7 4
-4 10 3 5 -5 15 -19 22 -25 11 -36 38 -16 38 6 0 10 -5 10 -11z m310 7 c0 -3
-4 -8 -10 -11 -5 -3 -10 -1 -10 4 0 6 5 11 10 11 6 0 10 -2 10 -4z m-308 -68
c-15 -15 -26 -4 -18 18 5 13 9 15 18 6 9 -9 9 -15 0 -24z m-1142 -24 c0 -14
-3 -14 -15 -4 -8 7 -15 14 -15 16 0 2 7 4 15 4 8 0 15 -7 15 -16z m510 -27 c4
-5 10 -1 14 8 3 9 2 14 -2 11 -5 -3 -9 1 -9 9 0 20 11 19 29 -2 11 -12 13 -25
8 -38 -8 -19 -9 -19 -9 -1 -1 19 -1 19 -15 1 -16 -22 -43 -28 -43 -9 0 7 4 11
9 8 4 -3 8 -1 8 5 0 5 -4 12 -10 16 -5 3 -6 13 -2 23 6 15 7 15 10 -3 2 -11 7
-24 12 -28z m80 33 c0 -5 -5 -10 -11 -10 -5 0 -7 -5 -3 -11 4 -8 9 -7 15 2 6
10 9 10 9 2 0 -7 7 -10 17 -6 11 4 14 3 9 -5 -5 -9 -1 -10 16 -3 13 4 31 7 41
6 9 -2 17 1 17 6 0 5 -15 9 -32 8 -48 -3 -68 0 -68 9 0 4 27 7 60 7 47 0 59
-3 55 -14 -3 -8 0 -11 9 -8 8 3 17 -1 20 -9 3 -8 -1 -14 -12 -15 -9 -1 -33 -3
-52 -4 -19 -1 -37 -3 -40 -4 -19 -9 -39 -8 -34 2 5 8 2 7 -7 0 -21 -20 -42
-16 -36 7 3 11 1 23 -4 26 -5 3 -7 10 -4 15 8 12 35 12 35 -1z m202 -5 c5 -6
8 -4 8 4 0 11 4 9 14 -4 14 -20 12 -35 -4 -35 -5 0 -7 7 -4 15 5 11 2 13 -10
9 -9 -3 -14 -9 -11 -13 2 -4 -2 -8 -8 -8 -7 0 -13 11 -13 23 0 23 15 28 28 9z
m54 -1 c-3 -8 4 -11 19 -9 14 1 22 -2 19 -6 -8 -13 -38 -11 -52 3 -16 16 -15
25 3 25 9 0 14 -6 11 -13z m78 3 c9 10 96 10 96 1 0 -4 -12 -9 -27 -9 -16 -1
-41 -2 -56 -3 -15 -1 -33 5 -40 14 -10 13 -10 13 4 3 9 -7 19 -10 23 -6z
m-721 -74 c-7 -2 -21 -2 -30 0 -10 3 -4 5 12 5 17 0 24 -2 18 -5z"/>
<path d="M18381 29373 c-7 -8 -11 -16 -8 -19 2 -2 10 2 17 11 17 20 9 27 -9 8z"/>
<path d="M18480 29310 c0 -5 19 -10 43 -10 31 0 38 3 27 10 -20 13 -70 13 -70
0z"/>
<path d="M19040 29000 c0 -13 7 -20 20 -20 13 0 20 7 20 20 0 13 -7 20 -20 20
-13 0 -20 -7 -20 -20z"/>
<path d="M19360 28830 c0 -5 19 -10 43 -10 31 0 38 3 27 10 -20 13 -70 13 -70
0z"/>
<path d="M19920 28520 c0 -13 7 -20 20 -20 13 0 20 7 20 20 0 13 -7 20 -20 20
-13 0 -20 -7 -20 -20z"/>
<path d="M20240 28350 c0 -5 19 -10 43 -10 31 0 38 3 27 10 -20 13 -70 13 -70
0z"/>
<path d="M20800 28040 c0 -13 7 -20 20 -20 13 0 20 7 20 20 0 13 -7 20 -20 20
-13 0 -20 -7 -20 -20z"/>
<path d="M21680 27560 c0 -13 7 -20 20 -20 13 0 20 7 20 20 0 13 -7 20 -20 20
-13 0 -20 -7 -20 -20z"/>
<path d="M22328 27133 c12 -2 30 -2 40 0 9 3 -1 5 -23 4 -22 0 -30 -2 -17 -4z"/>
<path d="M21880 27041 c0 -5 7 -11 14 -14 10 -4 13 -1 9 9 -6 15 -23 19 -23 5z"/>
<path d="M26060 39660 c0 -5 5 -10 11 -10 5 0 7 5 4 10 -3 6 -8 10 -11 10 -2
0 -4 -4 -4 -10z"/>
<path d="M26240 39624 c0 -8 5 -12 10 -9 6 4 8 11 5 16 -9 14 -15 11 -15 -7z"/>
<path d="M26104 39595 c-15 -15 -19 -27 -13 -36 7 -11 9 -11 9 3 0 9 6 18 12
20 18 6 41 -20 34 -37 -8 -23 -26 -18 -26 7 0 21 0 21 -14 2 -13 -16 -13 -19
0 -22 8 -2 14 -8 14 -14 0 -6 3 -8 7 -5 3 4 11 0 17 -8 9 -12 11 -7 11 23 0
21 -5 45 -11 53 -6 8 -13 19 -15 25 -2 6 -13 2 -25 -11z"/>
<path d="M26151 39604 c0 -11 3 -14 6 -6 3 7 2 16 -1 19 -3 4 -6 -2 -5 -13z"/>
<path d="M26271 39596 c-9 -10 -9 -16 -1 -21 6 -4 14 -4 17 -1 4 3 1 6 -7 6
-10 0 -10 3 0 15 7 8 10 15 7 15 -2 0 -10 -6 -16 -14z"/>
<path d="M26254 39556 c1 -8 5 -18 8 -22 4 -3 5 1 4 10 -1 8 -5 18 -8 22 -4 3
-5 -1 -4 -10z"/>
<path d="M26275 39521 c-8 -14 10 -22 30 -15 13 5 14 8 3 15 -17 11 -26 11
-33 0z"/>
<path d="M26110 39481 c0 -6 4 -13 10 -16 6 -3 7 1 4 9 -7 18 -14 21 -14 7z"/>
<path d="M26267 39469 c7 -7 15 -10 18 -7 3 3 -2 9 -12 12 -14 6 -15 5 -6 -5z"/>
<path d="M23333 38895 c-93 -191 -97 -196 -122 -190 -38 9 -373 137 -471 179
-47 21 -80 33 -75 29 6 -5 36 -28 67 -52 113 -84 256 -240 362 -394 26 -37 97
-157 158 -265 421 -747 789 -1378 1012 -1732 36 -58 66 -113 66 -122 0 -10 -9
-27 -19 -37 -19 -19 -15 -21 197 -127 119 -59 225 -107 235 -107 9 1 15 -2 12
-7 -7 -11 54 -32 68 -23 5 3 7 1 4 -4 -6 -9 22 -29 28 -21 20 31 45 78 41 78
-3 0 6 16 19 36 13 19 27 45 31 57 4 12 15 34 25 49 14 20 16 28 7 31 -8 3 -5
6 6 6 12 1 16 6 12 17 -4 10 -2 13 6 8 8 -5 9 -2 5 10 -4 9 -3 15 2 12 11 -7
23 22 14 36 -3 6 -2 8 4 5 9 -6 49 60 45 76 -1 4 2 7 6 7 5 0 16 19 27 43 10
23 21 44 24 47 4 3 58 95 120 205 63 110 150 258 193 329 43 71 78 132 78 135
0 3 -57 28 -128 56 -151 59 -440 200 -590 289 l-107 64 -34 83 c-186 462 -493
830 -1044 1251 -89 69 -168 128 -175 132 -9 5 -40 -48 -109 -189z m1837 -2261
c0 -8 -19 -13 -24 -6 -3 5 1 9 9 9 8 0 15 -2 15 -3z m-255 -394 c-3 -5 -12
-10 -18 -10 -7 0 -6 4 3 10 19 12 23 12 15 0z m-3 -65 c2 3 5 -2 5 -10 0 -19
0 -19 -23 7 -12 14 -13 18 -3 10 9 -6 18 -10 21 -7z m-52 -92 c0 -10 -4 -14
-8 -8 -4 6 -11 13 -16 18 -5 4 -2 7 7 7 10 0 17 -8 17 -17z m-5 -33 c3 -5 1
-10 -4 -10 -6 0 -11 5 -11 10 0 6 2 10 4 10 3 0 8 -4 11 -10z"/>
<path d="M35670 27968 c0 -7783 2 -8710 15 -8763 45 -171 183 -308 349 -345
31 -7 1614 -10 5006 -10 4945 0 4960 0 4960 20 0 14 7 20 23 21 16 1 18 2 5 6
-17 4 -18 154 -19 2966 0 2694 -1 2960 -16 2940 -19 -28 -38 -31 -24 -5 7 14
6 19 -4 19 -7 0 -11 -7 -7 -15 4 -11 2 -13 -9 -6 -21 13 -38 13 -46 1 -3 -7
-3 -9 2 -5 4 4 21 0 37 -8 23 -12 33 -13 44 -3 12 10 14 8 11 -12 -3 -18 -11
-25 -33 -27 -20 -2 -25 0 -16 6 11 7 10 10 -3 16 -24 9 -28 8 -21 -9 3 -8 1
-15 -5 -15 -5 0 -12 7 -15 15 -4 8 -10 15 -16 15 -5 0 -6 -4 -3 -10 3 -5 3
-10 -2 -11 -4 0 -18 -2 -29 -3 -19 -2 -20 0 -11 16 7 10 19 18 27 19 11 0 11
2 2 6 -7 3 -19 -1 -27 -7 -11 -9 -15 -9 -15 -1 0 6 -4 11 -9 11 -4 0 -6 -10
-4 -22 4 -21 0 -23 -36 -25 -23 -1 -41 2 -41 6 0 4 -9 7 -20 7 -11 0 -20 -3
-20 -6 0 -3 -9 -6 -19 -6 -11 0 -17 4 -15 8 3 4 -2 8 -10 8 -9 0 -16 -4 -16
-10 0 -5 -20 -10 -45 -10 -27 0 -45 5 -45 11 0 8 -4 8 -13 1 -16 -14 -50 -9
-55 8 -3 8 0 10 8 5 8 -5 11 -4 6 3 -3 5 -21 9 -39 7 -17 -2 -24 -1 -14 1 9 3
17 10 17 15 0 6 -7 6 -19 0 -10 -6 -21 -8 -24 -4 -8 8 -37 -16 -37 -31 0 -6 7
-3 15 8 13 17 41 14 30 -3 -2 -5 7 -6 20 -3 14 2 25 0 25 -4 0 -13 -81 -16
-96 -3 -8 6 -14 7 -18 0 -8 -12 -36 -3 -36 10 0 5 7 9 15 9 8 0 15 5 15 10 0
12 -11 13 -30 0 -13 -8 -15 -348 -18 -2942 -2 -2326 -5 -2934 -15 -2940 -7 -4
6 -8 31 -8 23 0 42 -4 42 -10 0 -5 -25 -10 -56 -10 -45 0 -55 3 -51 14 3 8 2
16 -4 18 -14 5 -12 5852 2 5857 7 2 9 -1 6 -6 -8 -13 26 -12 35 1 18 26 7 35
-42 34 -27 -1 -47 -5 -45 -9 3 -4 -3 -5 -14 -2 -10 3 -22 -1 -26 -8 -6 -8 -4
-10 6 -4 12 8 12 6 0 -8 -14 -18 -22 -22 -20 -9 6 33 -26 47 -34 15 -4 -17 -5
-16 -6 0 -1 12 -7 17 -18 15 -10 -2 -17 -10 -15 -17 2 -9 -4 -8 -20 3 -23 17
-63 22 -54 8 3 -5 -1 -9 -9 -9 -8 0 -12 4 -9 9 3 4 0 8 -5 8 -6 0 -11 -4 -11
-8 0 -5 -34 -7 -77 -4 -68 4 -76 3 -70 -12 8 -21 -2 -21 -20 2 -8 10 -11 11
-7 2 7 -13 5 -13 -9 -2 -11 9 -31 12 -59 8 -24 -3 -67 -6 -95 -7 -29 -2 -53
-6 -53 -11 0 -4 -5 -8 -11 -8 -5 0 -7 5 -4 10 4 7 -27 8 -97 4 -57 -3 -110 -6
-118 -6 -13 1 -810 -30 -1135 -43 -3198 -131 -3356 -136 -3540 -102 -470 88
-848 311 -1120 662 -147 191 -247 408 -307 670 l-23 100 -3 4375 c-2 3155 0
4403 8 4475 14 126 33 214 73 337 17 54 29 99 27 101 -3 2 -216 111 -475 242
-258 131 -614 311 -790 400 -176 89 -562 285 -857 434 l-538 272 0 -8703z
m9613 -3204 c-4 -11 -9 -12 -19 -3 -18 15 -18 14 5 16 14 1 18 -3 14 -13z
m-242 -11 c13 -16 12 -17 -3 -4 -10 7 -18 15 -18 17 0 8 8 3 21 -13z m-286 -3
c-3 -5 -12 -10 -18 -10 -7 0 -6 4 3 10 19 12 23 12 15 0z m135 0 c0 -5 -2 -10
-4 -10 -3 0 -8 5 -11 10 -3 6 -1 10 4 10 6 0 11 -4 11 -10z"/>
<path d="M46190 36611 c0 -6 4 -13 10 -16 6 -3 7 1 4 9 -7 18 -14 21 -14 7z"/>
<path d="M18326 29435 c4 -8 10 -12 15 -9 11 6 2 24 -11 24 -5 0 -7 -7 -4 -15z"/>
<path d="M18381 29194 c0 -11 3 -14 6 -6 3 7 2 16 -1 19 -3 4 -6 -2 -5 -13z"/>
<path d="M18339 29138 c-5 -18 -6 -38 -1 -34 7 8 12 36 6 36 -2 0 -4 -1 -5 -2z"/>
<path d="M18357 29105 c-7 -16 8 -29 23 -20 6 3 10 12 9 18 0 9 -2 9 -6 0 -2
-7 -9 -13 -14 -13 -4 0 -6 7 -3 15 4 8 4 15 1 15 -3 0 -7 -7 -10 -15z"/>
<path d="M18338 29073 c-8 -15 11 -73 23 -73 13 0 6 23 -11 37 -10 8 -11 12
-3 13 6 0 15 -4 18 -10 3 -5 10 -10 16 -10 12 0 12 27 -1 35 -6 4 -7 -1 -4
-12 4 -14 1 -13 -14 5 -12 12 -22 19 -24 15z"/>
<path d="M18373 29013 c4 -3 2 -12 -4 -20 -9 -9 -8 -13 0 -13 6 0 11 2 11 4 0
2 3 11 6 20 4 10 1 16 -7 16 -7 0 -9 -3 -6 -7z"/>
<path d="M18352 28961 c-11 -7 -11 -9 2 -14 10 -4 16 -1 16 8 0 17 -1 17 -18
6z"/>
<path d="M18377 28936 c-6 -15 -10 -16 -22 -6 -13 10 -15 8 -15 -14 0 -15 5
-25 13 -23 17 3 39 35 35 49 -3 7 -7 4 -11 -6z"/>
<path d="M18370 28845 c0 -8 4 -15 10 -15 5 0 7 7 4 15 -4 8 -8 15 -10 15 -2
0 -4 -7 -4 -15z"/>
<path d="M18346 28804 c-9 -24 -2 -26 12 -4 7 11 8 20 3 20 -5 0 -12 -7 -15
-16z"/>
<path d="M18380 28635 c-1 -5 -2 -14 -1 -19 1 -5 -6 -5 -16 -2 -14 6 -15 4 -6
-5 6 -6 9 -17 7 -24 -7 -16 12 -29 21 -15 3 5 1 10 -5 10 -8 0 -8 6 0 21 6 11
9 25 6 32 -2 7 -5 8 -6 2z"/>
<path d="M18375 28530 c-3 -5 -1 -10 4 -10 6 0 11 5 11 10 0 6 -2 10 -4 10 -3
0 -8 -4 -11 -10z"/>
<path d="M18363 28450 c-2 -28 10 -40 21 -22 6 10 -4 52 -13 52 -3 0 -7 -14
-8 -30z"/>
<path d="M18365 28390 c-3 -5 -2 -10 4 -10 5 0 13 5 16 10 3 6 2 10 -4 10 -5
0 -13 -4 -16 -10z"/>
<path d="M18381 28314 c0 -11 3 -14 6 -6 3 7 2 16 -1 19 -3 4 -6 -2 -5 -13z"/>
<path d="M22975 28060 c3 -5 8 -10 11 -10 2 0 4 5 4 10 0 6 -5 10 -11 10 -5 0
-7 -4 -4 -10z"/>
<path d="M18695 27280 c-3 -6 1 -7 9 -4 18 7 21 14 7 14 -6 0 -13 -4 -16 -10z"/>
<path d="M18894 27212 c3 -6 -2 -12 -11 -14 -16 -3 -17 -4 -1 -10 19 -8 33 17
16 28 -6 4 -8 3 -4 -4z"/>
<path d="M45769 24802 c-14 -6 -15 -9 -3 -20 11 -10 14 -10 14 2 0 8 6 17 13
19 6 3 8 5 2 6 -5 0 -17 -3 -26 -7z"/>
<path d="M45521 24783 c10 -11 10 -14 2 -9 -8 4 -13 2 -13 -7 0 -11 6 -12 34
-3 l35 10 -31 13 c-40 17 -43 16 -27 -4z"/>
<path d="M45578 24793 c7 -3 16 -2 19 1 4 3 -2 6 -13 5 -11 0 -14 -3 -6 -6z"/>
<path d="M45623 24788 c-20 -26 -22 -35 -8 -35 8 0 15 4 15 9 0 4 8 8 18 9 10
0 12 3 4 6 -6 2 -10 9 -6 14 8 14 -12 11 -23 -3z"/>
<path d="M45690 24790 c-8 -5 -10 -10 -5 -11 58 -7 69 -7 56 0 -8 5 -21 7 -29
3 -10 -3 -13 -1 -8 6 9 14 6 15 -14 2z"/>
<path d="M45787 24771 c-3 -13 -1 -18 9 -14 7 2 10 11 7 19 -7 19 -10 18 -16
-5z"/>
<path d="M20487 11983 c4 -27 8 -87 8 -134 0 -77 -3 -90 -28 -127 -61 -93
-149 -117 -397 -110 -143 5 -174 13 -216 60 -33 36 -42 58 -64 164 -12 55 -24
106 -27 114 -11 32 -125 -409 -167 -645 -67 -386 -80 -770 -35 -1031 l11 -61
91 -7 c577 -41 1380 -29 2022 29 337 31 310 26 313 61 4 45 -60 230 -133 379
-196 404 -553 793 -1047 1143 -108 76 -321 212 -334 212 -3 0 -2 -21 3 -47z"/>
<path d="M23572 11853 c-156 -338 -272 -918 -272 -1364 l0 -116 88 -26 c159
-49 354 -81 652 -108 186 -17 1138 -19 1505 -3 452 19 1261 69 1293 79 10 4
10 10 2 26 -31 58 -233 292 -370 429 -418 419 -938 744 -1556 973 -142 53
-442 147 -468 147 -7 0 -18 -15 -24 -34 -30 -83 -84 -118 -224 -142 -120 -21
-402 -24 -438 -5 -62 33 -85 76 -105 194 -11 65 -36 49 -83 -50z"/>
</g>
</svg>
